<svg width="11" height="19" viewBox="0 0 11 19" fill="none" xmlns="http://www.w3.org/2000/svg">
<path d="M2.17972 18.624L10.7212 10.2018C10.8226 10.1016 10.8942 9.99296 10.9361 9.87599C10.9787 9.75902 11 9.63369 11 9.5C11 9.36631 10.9787 9.24098 10.9361 9.12401C10.8942 9.00704 10.8226 8.89842 10.7212 8.79815L2.17972 0.350923C1.94316 0.116974 1.64746 0 1.29263 0C0.937788 0 0.63364 0.12533 0.380184 0.375989C0.126728 0.626649 0 0.919085 0 1.2533C0 1.58751 0.126728 1.87995 0.380184 2.13061L7.8318 9.5L0.380184 16.8694C0.143625 17.1033 0.0253448 17.3914 0.0253448 17.7337C0.0253448 18.0766 0.152073 18.3734 0.40553 18.624C0.658986 18.8747 0.954685 19 1.29263 19C1.63057 19 1.92627 18.8747 2.17972 18.624Z" fill="white"/>
</svg>
