<svg width="35" height="35" viewBox="0 0 35 35" fill="none" xmlns="http://www.w3.org/2000/svg">
<path d="M12.0312 17.5C13.4367 17.5 14.7957 16.8725 15.8593 15.7336C16.8936 14.6228 17.5252 13.1414 17.6367 11.5637C17.7556 9.88066 17.2422 8.33301 16.1916 7.20508C15.1409 6.07715 13.6718 5.46875 12.0312 5.46875C10.4022 5.46875 8.92906 6.08809 7.88179 7.21328C6.82427 8.34941 6.30953 9.89434 6.42847 11.563C6.54263 13.1428 7.17359 14.6234 8.20581 15.7329C9.26675 16.8725 10.6251 17.5 12.0312 17.5ZM3.01939 29.5312H21.0423C21.3321 29.5328 21.6184 29.4678 21.8791 29.3414C22.1398 29.2149 22.3681 29.0304 22.5462 28.8019C22.7353 28.5541 22.8658 28.2669 22.9281 27.9616C22.9903 27.6563 22.9827 27.3408 22.9058 27.0389C22.3302 24.7276 20.9043 22.8108 18.7824 21.4963C16.8991 20.3301 14.5017 19.6875 12.0312 19.6875C9.51216 19.6875 7.17769 20.3027 5.28345 21.4683C3.15679 22.776 1.72876 24.7037 1.15591 27.043C1.07994 27.3451 1.07318 27.6606 1.13616 27.9657C1.19913 28.2709 1.3302 28.5579 1.51958 28.8053C1.69759 29.0327 1.9253 29.2164 2.18527 29.3422C2.44524 29.4681 2.73057 29.5327 3.01939 29.5312ZM24.9511 17.7734C27.3567 17.7734 29.4717 15.5367 29.6679 12.788C29.765 11.3798 29.3261 10.0775 28.4375 9.12256C27.5584 8.17715 26.3183 7.65625 24.9511 7.65625C23.5839 7.65625 22.3535 8.17988 21.4696 9.13076C20.5741 10.0933 20.1366 11.3928 20.2391 12.7894C20.4353 15.5374 22.5497 17.7734 24.9511 17.7734ZM20.4627 19.9233C21.6651 19.3355 23.2257 19.0415 24.9504 19.0415C26.9643 19.0415 28.9201 19.5665 30.4582 20.5194C32.202 21.6016 33.3751 23.1772 33.8488 25.0797C33.9181 25.3533 33.9247 25.6391 33.868 25.9156C33.8113 26.1922 33.6928 26.4523 33.5213 26.6766C33.3587 26.8854 33.1503 27.0541 32.9122 27.1698C32.6741 27.2854 32.4127 27.345 32.148 27.3438H24.5601C24.432 27.3437 24.308 27.2988 24.2097 27.2167C24.1114 27.1346 24.045 27.0206 24.0221 26.8946C24.0146 26.8516 24.005 26.8085 23.9941 26.7661C23.4144 24.4378 22.0561 22.4704 20.0491 21.0362C19.9753 20.983 19.9159 20.9122 19.8763 20.8303C19.8368 20.7483 19.8183 20.6578 19.8226 20.5669C19.8269 20.476 19.8538 20.3876 19.9008 20.3097C19.9479 20.2318 20.0137 20.1669 20.0921 20.1209C20.1995 20.058 20.3225 19.9917 20.4627 19.9233Z" fill="white" fill-opacity="0.5"/>
</svg>
