<svg width="20" height="20" viewBox="0 0 20 20" fill="none" xmlns="http://www.w3.org/2000/svg">
<path d="M17.1172 13.8203C16.6406 13.0078 16.0781 11.4688 16.0781 8.75V8.19531C16.0781 4.82031 13.375 2.05469 10.0469 2.03125H10C9.20049 2.03125 8.40884 2.18898 7.67038 2.49541C6.93193 2.80184 6.26119 3.25095 5.69658 3.81701C5.13197 4.38307 4.68458 5.05497 4.38005 5.7942C4.07552 6.53344 3.91982 7.3255 3.92187 8.125V8.75C3.92187 11.4688 3.35937 13.0078 2.88281 13.8203C2.78536 13.9875 2.73401 14.1776 2.73401 14.3711C2.73401 14.5646 2.78536 14.7547 2.88281 14.9219C2.97678 15.0895 3.11413 15.2287 3.28047 15.325C3.4468 15.4212 3.63597 15.4708 3.82812 15.4688H7.03125V15.625C7.03125 16.4124 7.34403 17.1675 7.90077 17.7242C8.45752 18.281 9.21264 18.5938 10 18.5938C10.7874 18.5938 11.5425 18.281 12.0992 17.7242C12.656 17.1675 12.9687 16.4124 12.9687 15.625V15.4688H16.1719C16.364 15.4708 16.5532 15.4212 16.7195 15.325C16.8859 15.2287 17.0232 15.0895 17.1172 14.9219C17.2146 14.7547 17.266 14.5646 17.266 14.3711C17.266 14.1776 17.2146 13.9875 17.1172 13.8203ZM12.0312 15.625C12.0312 16.1637 11.8172 16.6804 11.4363 17.0613C11.0554 17.4422 10.5387 17.6562 10 17.6562C9.46128 17.6562 8.94462 17.4422 8.56369 17.0613C8.18275 16.6804 7.96875 16.1637 7.96875 15.625V15.4688H12.0312V15.625ZM16.3047 14.4531C16.2926 14.4777 16.2735 14.4981 16.2499 14.512C16.2263 14.5259 16.1992 14.5326 16.1719 14.5312H3.82812C3.80078 14.5326 3.77365 14.5259 3.75006 14.512C3.72647 14.4981 3.70744 14.4777 3.69531 14.4531C3.6816 14.4294 3.67438 14.4024 3.67438 14.375C3.67438 14.3476 3.6816 14.3206 3.69531 14.2969C4.22656 13.375 4.85937 11.6719 4.85937 8.75V8.125C4.85835 7.4489 4.9905 6.77921 5.24828 6.15418C5.50607 5.52915 5.88444 4.96102 6.36179 4.48221C6.83914 4.00341 7.40612 3.62332 8.03037 3.36364C8.65461 3.10396 9.32389 2.96978 10 2.96875H10.0391C12.8516 2.98438 15.1406 5.33594 15.1406 8.19531V8.75C15.1406 11.6719 15.7734 13.375 16.3047 14.2969C16.3184 14.3206 16.3256 14.3476 16.3256 14.375C16.3256 14.4024 16.3184 14.4294 16.3047 14.4531Z" fill="white"/>
</svg>
