<svg width="34" height="33" viewBox="0 0 34 33" fill="none" xmlns="http://www.w3.org/2000/svg">
<path d="M28.3058 5.5619C28.3058 5.35893 28.2225 5.16428 28.0742 5.02076C27.9259 4.87725 27.7248 4.79662 27.5151 4.79662L21.1897 4.75835C20.98 4.75835 20.7789 4.83898 20.6306 4.9825C20.4823 5.12602 20.399 5.32067 20.399 5.52363C20.399 5.7266 20.4823 5.92125 20.6306 6.06476C20.7789 6.20828 20.98 6.28891 21.1897 6.28891H25.5859L19.047 12.6331C18.9728 12.7042 18.914 12.7888 18.8739 12.8821C18.8337 12.9754 18.8131 13.0754 18.8131 13.1764C18.8131 13.2774 18.8337 13.3775 18.8739 13.4707C18.914 13.564 18.9728 13.6486 19.047 13.7198C19.1205 13.7915 19.2079 13.8484 19.3043 13.8873C19.4006 13.9261 19.504 13.9461 19.6083 13.9461C19.7127 13.9461 19.8161 13.9261 19.9124 13.8873C20.0088 13.8484 20.0962 13.7915 20.1697 13.7198L26.7245 7.3756V11.6459C26.7245 11.8488 26.8078 12.0435 26.956 12.187C27.1043 12.3305 27.3054 12.4111 27.5151 12.4111C27.7248 12.4111 27.9259 12.3305 28.0742 12.187C28.2225 12.0435 28.3058 11.8488 28.3058 11.6459V5.5619Z" fill="white"/>
<path d="M4.83514 26.6714C4.83514 26.8744 4.91844 27.0691 5.06672 27.2126C5.215 27.3561 5.41611 27.4367 5.62582 27.4367L11.9512 27.475C12.1609 27.475 12.3621 27.3944 12.5103 27.2508C12.6586 27.1073 12.7419 26.9127 12.7419 26.7097C12.7419 26.5067 12.6586 26.3121 12.5103 26.1686C12.3621 26.0251 12.1609 25.9444 11.9512 25.9444L7.55507 25.9444L14.094 19.6003C14.1681 19.5291 14.2269 19.4445 14.2671 19.3512C14.3072 19.258 14.3279 19.158 14.3279 19.0569C14.3279 18.9559 14.3072 18.8559 14.2671 18.7626C14.2269 18.6694 14.1681 18.5847 14.094 18.5136C14.0205 18.4419 13.933 18.3849 13.8367 18.3461C13.7403 18.3072 13.637 18.2872 13.5326 18.2872C13.4282 18.2872 13.3249 18.3072 13.2285 18.3461C13.1322 18.3849 13.0447 18.4419 12.9712 18.5136L6.41649 24.8577L6.41649 20.5875C6.41649 20.3845 6.33319 20.1899 6.18491 20.0464C6.03663 19.9028 5.83552 19.8222 5.62582 19.8222C5.41611 19.8222 5.215 19.9028 5.06672 20.0464C4.91844 20.1899 4.83514 20.3845 4.83514 20.5875L4.83514 26.6714Z" fill="white"/>
</svg>
