<svg width="35" height="35" viewBox="0 0 35 35" fill="none" xmlns="http://www.w3.org/2000/svg">
<path d="M18.275 22.15C19.36 22.15 20.2771 21.7754 21.0262 21.0262C21.7754 20.2771 22.15 19.36 22.15 18.275V9.75H25.2887C25.7279 9.75 26.0896 9.60172 26.3738 9.30515C26.6579 9.00755 26.8 8.63917 26.8 8.2C26.8 7.76083 26.6512 7.39245 26.3536 7.09485C26.057 6.79828 25.6892 6.65 25.25 6.65H22.15C21.7108 6.65 21.343 6.79828 21.0464 7.09485C20.7488 7.39245 20.6 7.76083 20.6 8.2V15.175C20.2642 14.9167 19.9025 14.7229 19.515 14.5938C19.1275 14.4646 18.7142 14.4 18.275 14.4C17.19 14.4 16.2729 14.7746 15.5238 15.5238C14.7746 16.2729 14.4 17.19 14.4 18.275C14.4 19.36 14.7746 20.2771 15.5238 21.0262C16.2729 21.7754 17.19 22.15 18.275 22.15ZM11.3 26.8C10.4475 26.8 9.71797 26.4967 9.1114 25.8902C8.5038 25.2825 8.2 24.5525 8.2 23.7V5.1C8.2 4.2475 8.5038 3.51745 9.1114 2.90985C9.71797 2.30328 10.4475 2 11.3 2H29.9C30.7525 2 31.4825 2.30328 32.0901 2.90985C32.6967 3.51745 33 4.2475 33 5.1V23.7C33 24.5525 32.6967 25.2825 32.0901 25.8902C31.4825 26.4967 30.7525 26.8 29.9 26.8H11.3ZM5.1 33C4.2475 33 3.51797 32.6967 2.9114 32.0901C2.3038 31.4825 2 30.7525 2 29.9V9.71125C2 9.27208 2.1488 8.91042 2.4464 8.62625C2.74297 8.34208 3.11083 8.2 3.55 8.2C3.98917 8.2 4.35755 8.34828 4.65515 8.64485C4.95172 8.94245 5.1 9.31083 5.1 9.75V29.9H25.2887C25.7279 29.9 26.0896 30.0488 26.3738 30.3464C26.6579 30.643 26.8 31.0108 26.8 31.45C26.8 31.8892 26.6512 32.257 26.3536 32.5536C26.057 32.8512 25.6892 33 25.25 33H5.1Z" fill="white" fill-opacity="0.5"/>
</svg>
