<svg width="30" height="31" viewBox="0 0 30 31" fill="none" xmlns="http://www.w3.org/2000/svg">
<path d="M22.4655 5.74175L22.4654 5.7418L10.5188 14.3413L10.5186 14.3414C9.7499 14.8944 9.7499 16.1033 10.5186 16.6563L10.5188 16.6564L22.4653 25.2569L22.4655 5.74175ZM22.4655 5.74175C23.296 5.14371 24.5 5.73429 24.5 6.89933M22.4655 5.74175L24.5 6.89933M24.5 6.89933V24.1001C24.5 25.2636 23.2966 25.8545 22.4655 25.257L24.5 6.89933ZM5.69444 5.5C5.77893 5.5 5.88889 5.57954 5.88889 5.72917V25.2708C5.88889 25.3393 5.86277 25.4003 5.82342 25.4416C5.78486 25.4821 5.73793 25.5 5.69444 25.5C5.65096 25.5 5.60402 25.4821 5.56547 25.4416C5.52612 25.4003 5.5 25.3393 5.5 25.2708V5.72917C5.5 5.57954 5.60996 5.5 5.69444 5.5Z" stroke="#E12D48"/>
</svg>
