<svg width="30" height="31" viewBox="0 0 30 31" fill="none" xmlns="http://www.w3.org/2000/svg">
<path d="M7.53448 5.74175L7.53456 5.7418L19.4812 14.3413L19.4814 14.3414C20.2501 14.8944 20.2501 16.1033 19.4814 16.6563L19.4812 16.6564L7.53474 25.2569L7.53448 5.74175ZM7.53448 5.74175C6.704 5.14371 5.5 5.73429 5.5 6.89933M7.53448 5.74175L5.5 6.89933M5.5 6.89933V24.1001C5.5 25.2636 6.70337 25.8545 7.53453 25.257L5.5 6.89933ZM24.3056 5.5C24.2211 5.5 24.1111 5.57954 24.1111 5.72917V25.2708C24.1111 25.3393 24.1372 25.4003 24.1766 25.4416C24.2151 25.4821 24.2621 25.5 24.3056 25.5C24.349 25.5 24.396 25.4821 24.4345 25.4416C24.4739 25.4003 24.5 25.3393 24.5 25.2708V5.72917C24.5 5.57954 24.39 5.5 24.3056 5.5Z" stroke="#E12D48"/>
</svg>
