<svg width="30" height="30" viewBox="0 0 30 30" fill="none" xmlns="http://www.w3.org/2000/svg">
<path d="M13.0761 2C19.1901 2 24.1522 6.9621 24.1522 13.0761C24.1522 19.1901 19.1901 24.1522 13.0761 24.1522C6.9621 24.1522 2 19.1901 2 13.0761C2 6.9621 6.9621 2 13.0761 2ZM13.0761 21.6909C17.8351 21.6909 21.6909 17.8351 21.6909 13.0761C21.6909 8.31584 17.8351 4.46136 13.0761 4.46136C8.31584 4.46136 4.46136 8.31584 4.46136 13.0761C4.46136 17.8351 8.31584 21.6909 13.0761 21.6909ZM23.5184 21.7782L27 25.2586L25.2586 27L21.7782 23.5184L23.5184 21.7782Z" fill="white" fill-opacity="0.8"/>
</svg>
